<svg xmlns="http://www.w3.org/2000/svg" viewBox="0 0 128 128">
  <defs>
    <linearGradient id="g" x1="0" y1="0" x2="1" y2="1">
      <stop offset="0" stop-color="#0033A0"/>
      <stop offset="1" stop-color="#C8102E"/>
    </linearGradient>
  </defs>
  <rect x="12" y="12" width="104" height="104" rx="26" fill="url(#g)"/>
  <g fill="#fff">
    <path d="M36 56h56c4 0 7 3 7 7v4c0 4-3 7-7 7H36c-4 0-7-3-7-7v-4c0-4 3-7 7-7z" opacity=".95"/>
    <path d="M44 45c0-11 9-20 20-20s20 9 20 20h-8c0-7-5-12-12-12s-12 5-12 12h-8z" opacity=".9"/>
    <path d="M64 66m-10 0h20v8H54z"/>
    <path d="M64 66m0 -10v20h-8V56z"/>
  </g>
</svg>
